<svg xmlns="http://www.w3.org/2000/svg" version="1.1" xmlns:xlink="http://www.w3.org/1999/xlink" xmlns:svgjs="http://svgjs.dev/svgjs" viewBox="0 0 11.059448878825444 9.759433439326294"><g transform="matrix(1,0,0,1,0.86542207124866,7.424011368077633)"><rect width="11.059448878825444" height="11.059448878825444" x="-0.86542207124866" y="-8.074019087827208" fill="#319795"></rect><g><path d=" M 0.09 1.125 L 0.09 1.101 L 0.2115 1.041 L 0.2115 0.21899999999999997 L 0.09 0.15900000000000003 L 0.09 0.135 L 0.507 0.135 Q 0.6645 0.135 0.75525 0.20024999999999993 Q 0.846 0.26549999999999996 0.846 0.37949999999999995 Q 0.846 0.4635 0.789 0.528 Q 0.732 0.5925 0.639 0.627 L 0.9225 1.0455 L 1.0230000000000001 1.101 L 1.0230000000000001 1.125 L 0.7815 1.125 L 0.4935 0.669 L 0.369 0.669 L 0.369 1.0395 L 0.4815 1.101 L 0.4815 1.125 L 0.09 1.125 M 0.4575 0.21750000000000003 L 0.369 0.21750000000000003 L 0.369 0.5895 L 0.4665 0.5895 Q 0.5595 0.5895 0.62025 0.53625 Q 0.681 0.483 0.681 0.40049999999999997 Q 0.681 0.31499999999999995 0.62175 0.26625 Q 0.5625 0.21750000000000003 0.4575 0.21750000000000003 M 1.4175380859375002 1.14 Q 1.2705380859375002 1.14 1.1850380859375 1.0515 Q 1.0995380859375001 0.963 1.0995380859375001 0.8160000000000001 Q 1.0995380859375001 0.7050000000000001 1.1452880859375 0.618 Q 1.1910380859375 0.531 1.2667880859375003 0.48224999999999996 Q 1.3425380859375 0.4335 1.4310380859375003 0.4335 Q 1.5510380859375001 0.4335 1.6185380859375003 0.51525 Q 1.6860380859375002 0.597 1.6875380859375002 0.75 L 1.6800380859375001 0.7575000000000001 L 1.2375380859375 0.7575000000000001 Q 1.2390380859375 0.8265 1.2637880859375001 0.885 Q 1.2885380859375002 0.9435 1.3432880859375 0.9795 Q 1.3980380859375001 1.0155 1.4910380859375 1.0155 Q 1.5765380859375 1.0155 1.6845380859375 0.9585 L 1.6890380859375003 0.9585 L 1.6890380859375003 0.9765 Q 1.6530380859375002 1.0455 1.5825380859375002 1.09275 Q 1.5120380859375002 1.14 1.4175380859375002 1.14 M 1.4040380859375001 0.49949999999999994 Q 1.3380380859375 0.49949999999999994 1.2952880859375 0.5489999999999999 Q 1.2525380859375002 0.5985 1.2405380859375001 0.6885 L 1.5600380859375003 0.6885 Q 1.5450380859375001 0.5865 1.5060380859375002 0.543 Q 1.4670380859375 0.49949999999999994 1.4040380859375001 0.49949999999999994 M 2.1660234375000003 1.14 Q 2.0205234375 1.14 1.9350234375000002 1.0515 Q 1.8495234375000003 0.963 1.8495234375000003 0.8160000000000001 Q 1.8495234375000003 0.7050000000000001 1.8952734375000002 0.618 Q 1.9410234375000002 0.531 2.0205234375 0.48224999999999996 Q 2.1000234375000004 0.4335 2.2020234375000003 0.4335 Q 2.2650234375 0.4335 2.3220234375000004 0.45375 Q 2.3790234375000003 0.474 2.4090234375 0.507 Q 2.4315234375 0.534 2.4315234375 0.5519999999999999 Q 2.4315234375 0.564 2.4277734375000004 0.57075 Q 2.4240234375000003 0.5775 2.4135234375000003 0.588 L 2.3520234375 0.6375 L 2.3415234375000002 0.6375 L 2.2905234375 0.5685 Q 2.2680234375 0.537 2.2365234375000003 0.51825 Q 2.2050234375000004 0.49949999999999994 2.1570234375000004 0.49949999999999994 Q 2.0775234375 0.49949999999999994 2.0325234375 0.5655 Q 1.9875234375000002 0.6315 1.9875234375000002 0.747 Q 1.9875234375000002 0.8175 2.0107734375 0.879 Q 2.0340234375 0.9405 2.0887734375000004 0.978 Q 2.1435234375000003 1.0155 2.2380234375000003 1.0155 Q 2.2800234375 1.0155 2.3280234375 1.00125 Q 2.3760234375000002 0.987 2.4300234375 0.9585 L 2.4345234375 0.9585 L 2.4345234375 0.9765 Q 2.4000234375000002 1.0455 2.3295234375000002 1.09275 Q 2.2590234375000002 1.14 2.1660234375000003 1.14 M 2.7494941406250004 0.25949999999999995 Q 2.708994140625 0.25949999999999995 2.6819941406250005 0.23249999999999993 Q 2.6549941406250004 0.20550000000000002 2.6549941406250004 0.16500000000000004 Q 2.6549941406250004 0.123 2.6819941406250005 0.09674999999999989 Q 2.708994140625 0.07050000000000001 2.7494941406250004 0.07050000000000001 Q 2.7899941406250006 0.07050000000000001 2.8169941406250003 0.09674999999999989 Q 2.8439941406250004 0.123 2.8439941406250004 0.16500000000000004 Q 2.8439941406250004 0.20550000000000002 2.8169941406250003 0.23249999999999993 Q 2.7899941406250006 0.25949999999999995 2.7494941406250004 0.25949999999999995 M 2.5874941406250005 1.125 L 2.5874941406250005 1.101 L 2.6834941406250006 1.053 L 2.6834941406250006 0.6045 L 2.591994140625 0.528 L 2.591994140625 0.516 L 2.813994140625 0.4335 L 2.824494140625 0.4335 L 2.824494140625 1.053 L 2.9174941406250006 1.101 L 2.9174941406250006 1.125 L 2.5874941406250005 1.125 M 3.0719838867187503 1.47 L 3.0719838867187503 1.446 L 3.1679838867187504 1.3980000000000001 L 3.1679838867187504 0.606 L 3.0764838867187505 0.5295 L 3.0764838867187505 0.5175 L 3.2834838867187504 0.4335 L 3.2939838867187508 0.4335 L 3.3059838867187503 0.525 L 3.3164838867187507 0.525 Q 3.3719838867187506 0.477 3.4244838867187504 0.45524999999999993 Q 3.4769838867187506 0.4335 3.5384838867187502 0.4335 Q 3.6119838867187504 0.4335 3.6704838867187504 0.47250000000000003 Q 3.7289838867187504 0.5115 3.763483886718751 0.58275 Q 3.7979838867187503 0.6539999999999999 3.7979838867187503 0.7545 Q 3.7979838867187503 0.876 3.7514838867187503 0.96225 Q 3.7049838867187503 1.0485 3.6269838867187505 1.09425 Q 3.5489838867187506 1.14 3.4544838867187506 1.14 Q 3.3734838867187507 1.14 3.3089838867187504 1.125 L 3.3089838867187504 1.3980000000000001 L 3.4184838867187506 1.446 L 3.4184838867187506 1.47 L 3.0719838867187503 1.47 M 3.4469838867187503 0.5415 Q 3.3749838867187503 0.5415 3.3089838867187504 0.582 L 3.3089838867187504 1.008 Q 3.3479838867187506 1.041 3.3907338867187504 1.05375 Q 3.4334838867187507 1.0665 3.4859838867187505 1.0665 Q 3.5309838867187504 1.0665 3.5699838867187506 1.041 Q 3.6089838867187503 1.0155 3.6322338867187502 0.95775 Q 3.6554838867187502 0.9 3.6554838867187502 0.8025 Q 3.6554838867187502 0.711 3.6269838867187505 0.6539999999999999 Q 3.5984838867187507 0.597 3.5512338867187507 0.56925 Q 3.5039838867187507 0.5415 3.4469838867187503 0.5415 M 4.278044677734376 1.14 Q 4.1310446777343754 1.14 4.045544677734376 1.0515 Q 3.9600446777343756 0.963 3.9600446777343756 0.8160000000000001 Q 3.9600446777343756 0.7050000000000001 4.005794677734376 0.618 Q 4.051544677734376 0.531 4.127294677734375 0.48224999999999996 Q 4.2030446777343755 0.4335 4.291544677734375 0.4335 Q 4.411544677734375 0.4335 4.479044677734375 0.51525 Q 4.546544677734376 0.597 4.548044677734375 0.75 L 4.540544677734376 0.7575000000000001 L 4.098044677734376 0.7575000000000001 Q 4.099544677734376 0.8265 4.124294677734376 0.885 Q 4.149044677734375 0.9435 4.2037946777343755 0.9795 Q 4.258544677734376 1.0155 4.351544677734376 1.0155 Q 4.4370446777343755 1.0155 4.545044677734376 0.9585 L 4.549544677734375 0.9585 L 4.549544677734375 0.9765 Q 4.513544677734376 1.0455 4.443044677734376 1.09275 Q 4.372544677734376 1.14 4.278044677734376 1.14 M 4.264544677734376 0.49949999999999994 Q 4.198544677734375 0.49949999999999994 4.1557946777343755 0.5489999999999999 Q 4.113044677734376 0.5985 4.101044677734375 0.6885 L 4.420544677734376 0.6885 Q 4.405544677734376 0.5865 4.3665446777343755 0.543 Q 4.327544677734376 0.49949999999999994 4.264544677734376 0.49949999999999994 M 5.1150439453125 1.125 L 5.1150439453125 1.101 L 5.2365439453125004 1.041 L 5.2365439453125004 0.21899999999999997 L 5.1150439453125 0.15900000000000003 L 5.1150439453125 0.135 L 5.5320439453125 0.135 Q 5.689543945312501 0.135 5.780293945312501 0.20024999999999993 Q 5.8710439453125005 0.26549999999999996 5.8710439453125005 0.37949999999999995 Q 5.8710439453125005 0.4635 5.8140439453125 0.528 Q 5.757043945312501 0.5925 5.664043945312501 0.627 L 5.947543945312501 1.0455 L 6.0480439453125 1.101 L 6.0480439453125 1.125 L 5.806543945312501 1.125 L 5.5185439453125005 0.669 L 5.3940439453125 0.669 L 5.3940439453125 1.0395 L 5.5065439453125 1.101 L 5.5065439453125 1.125 L 5.1150439453125 1.125 M 5.4825439453125 0.21750000000000003 L 5.3940439453125 0.21750000000000003 L 5.3940439453125 0.5895 L 5.4915439453125 0.5895 Q 5.5845439453125 0.5895 5.645293945312501 0.53625 Q 5.7060439453125005 0.483 5.7060439453125005 0.40049999999999997 Q 5.7060439453125005 0.31499999999999995 5.646793945312501 0.26625 Q 5.5875439453125 0.21750000000000003 5.4825439453125 0.21750000000000003 M 6.442582031250001 1.14 Q 6.295582031250001 1.14 6.210082031250001 1.0515 Q 6.124582031250001 0.963 6.124582031250001 0.8160000000000001 Q 6.124582031250001 0.7050000000000001 6.170332031250001 0.618 Q 6.216082031250001 0.531 6.291832031250001 0.48224999999999996 Q 6.367582031250001 0.4335 6.456082031250001 0.4335 Q 6.576082031250001 0.4335 6.643582031250001 0.51525 Q 6.711082031250001 0.597 6.712582031250001 0.75 L 6.705082031250001 0.7575000000000001 L 6.262582031250001 0.7575000000000001 Q 6.264082031250001 0.8265 6.288832031250001 0.885 Q 6.313582031250001 0.9435 6.368332031250001 0.9795 Q 6.423082031250001 1.0155 6.516082031250001 1.0155 Q 6.601582031250001 1.0155 6.709582031250001 0.9585 L 6.714082031250001 0.9585 L 6.714082031250001 0.9765 Q 6.678082031250001 1.0455 6.607582031250001 1.09275 Q 6.537082031250001 1.14 6.442582031250001 1.14 M 6.429082031250001 0.49949999999999994 Q 6.363082031250001 0.49949999999999994 6.320332031250001 0.5489999999999999 Q 6.277582031250001 0.5985 6.265582031250001 0.6885 L 6.585082031250001 0.6885 Q 6.570082031250001 0.5865 6.531082031250001 0.543 Q 6.492082031250001 0.49949999999999994 6.429082031250001 0.49949999999999994 M 7.038123779296876 1.14 Q 6.9661237792968755 1.14 6.9188737792968755 1.09725 Q 6.8716237792968755 1.0545 6.8716237792968755 0.9795 Q 6.8716237792968755 0.906 6.924873779296876 0.85275 Q 6.978123779296876 0.7995 7.110123779296876 0.768 L 7.252623779296876 0.735 L 7.252623779296876 0.63 Q 7.252623779296876 0.576 7.212873779296876 0.54 Q 7.173123779296875 0.504 7.120623779296876 0.504 Q 7.065123779296876 0.504 7.043373779296876 0.5325 Q 7.021623779296876 0.5609999999999999 7.021623779296876 0.6105 L 7.021623779296876 0.6585 L 7.014123779296876 0.6659999999999999 L 6.931623779296876 0.6659999999999999 Q 6.909123779296876 0.6659999999999999 6.900873779296876 0.6577500000000001 Q 6.892623779296875 0.6495 6.892623779296875 0.6224999999999999 Q 6.892623779296875 0.5895 6.912873779296875 0.55575 Q 6.933123779296876 0.522 6.975123779296876 0.49649999999999994 Q 7.020123779296876 0.46799999999999997 7.066623779296876 0.45075 Q 7.113123779296876 0.4335 7.165623779296876 0.4335 Q 7.2226237792968755 0.4335 7.275873779296876 0.44925000000000004 Q 7.329123779296876 0.46499999999999997 7.3621237792968754 0.5025 Q 7.395123779296876 0.54 7.395123779296876 0.603 L 7.395123779296876 1.0215 Q 7.405623779296875 1.032 7.424373779296876 1.0395 Q 7.443123779296876 1.047 7.476123779296875 1.047 L 7.5286237792968755 1.047 L 7.534623779296876 1.05 L 7.534623779296876 1.059 Q 7.516623779296876 1.0905 7.4798737792968755 1.11525 Q 7.443123779296876 1.14 7.390623779296876 1.14 Q 7.3396237792968755 1.14 7.308123779296876 1.11525 Q 7.276623779296876 1.0905 7.263123779296876 1.047 L 7.252623779296876 1.047 Q 7.213623779296876 1.086 7.157373779296876 1.113 Q 7.101123779296875 1.14 7.038123779296876 1.14 M 7.008123779296875 0.9465 Q 7.008123779296875 1.0395 7.117623779296876 1.0395 Q 7.150623779296875 1.0395 7.181373779296876 1.03275 Q 7.212123779296876 1.026 7.252623779296876 1.0095 L 7.252623779296876 0.7875 Q 7.144623779296876 0.8085 7.092123779296876 0.8325 Q 7.039623779296876 0.8565 7.023873779296876 0.88425 Q 7.008123779296875 0.912 7.008123779296875 0.9465 M 7.618573974609375 1.125 L 7.618573974609375 1.101 L 7.713073974609375 1.053 L 7.713073974609375 0.17099999999999993 L 7.623073974609375 0.09450000000000003 L 7.623073974609375 0.08250000000000002 L 7.8435739746093756 0 L 7.855573974609375 0 L 7.855573974609375 1.053 L 7.948573974609375 1.101 L 7.948573974609375 1.125 L 7.618573974609375 1.125 M 8.089612060546877 1.125 L 8.089612060546877 1.101 L 8.185612060546877 1.053 L 8.185612060546877 0.6045 L 8.094112060546877 0.5295 L 8.094112060546877 0.5175 L 8.301112060546876 0.4335 L 8.311612060546876 0.4335 L 8.325112060546877 0.5445 L 8.332612060546875 0.5445 Q 8.388112060546876 0.489 8.439112060546876 0.46124999999999994 Q 8.490112060546876 0.4335 8.553112060546876 0.4335 Q 8.625112060546876 0.4335 8.676112060546876 0.46575 Q 8.727112060546876 0.498 8.742112060546877 0.5609999999999999 L 8.748112060546877 0.5609999999999999 Q 8.809612060546876 0.49649999999999994 8.863612060546876 0.46499999999999997 Q 8.917612060546876 0.4335 8.985112060546875 0.4335 Q 9.072112060546877 0.4335 9.126862060546877 0.47775 Q 9.181612060546875 0.522 9.181612060546875 0.6105 L 9.181612060546875 1.053 L 9.277612060546875 1.101 L 9.277612060546875 1.125 L 8.940112060546875 1.125 L 8.940112060546875 1.101 L 9.040612060546875 1.053 L 9.040612060546875 0.6795 Q 9.040612060546875 0.615 9.003112060546876 0.58275 Q 8.965612060546876 0.5505 8.907112060546876 0.5505 Q 8.860612060546876 0.5505 8.818612060546876 0.56625 Q 8.776612060546876 0.582 8.748112060546877 0.612 L 8.748112060546877 1.053 L 8.845612060546877 1.101 L 8.845612060546877 1.125 L 8.512612060546877 1.125 L 8.512612060546877 1.101 L 8.607112060546877 1.053 L 8.607112060546877 0.6795 Q 8.607112060546877 0.615 8.570362060546875 0.58275 Q 8.533612060546876 0.5505 8.475112060546875 0.5505 Q 8.439112060546876 0.5505 8.396362060546876 0.5625 Q 8.353612060546876 0.5745 8.326612060546877 0.6 L 8.326612060546877 1.053 L 8.418112060546877 1.101 L 8.418112060546877 1.125 L 8.089612060546877 1.125" fill="#ffffff" fill-rule="nonzero"></path></g><g></g><g clip-path="url(#SvgjsClipPath1002)"><g clip-path="url(#a529e5822-fb5d-4c2c-8270-5fd138ba75be9f14179c-0bc7-41c4-bdcc-5111da26c844)"><path d=" M 0.365717410736355 -2.5803853614363095 C 0.29306149083906163 -2.580865094722321 0.2337305656560094 -2.5224370314442277 0.23309619754067246 -2.449782297137083 L 0.23309619754067246 -2.264112598663127 C 0.23309619754067246 -2.1920358523611263 0.2926315899861256 -2.133653687856505 0.365717410736355 -2.133653687856505 L 6.230746410822811 -2.133653687856505 C 6.303832231573041 -2.133653687856505 6.363367624018494 -2.1920358523611263 6.363367624018494 -2.264112598663127 L 6.363367624018494 -2.449782297137083 C 6.363367624018494 -2.5218590434390844 6.3038322315730415 -2.5803853614363095 6.230746410822811 -2.5803853614363095 Z" fill="#d72b43" transform="matrix(1,0,0,1,0,0)" fill-rule="nonzero"></path></g><g clip-path="url(#a529e5822-fb5d-4c2c-8270-5fd138ba75be9f14179c-0bc7-41c4-bdcc-5111da26c844)"><path d=" M 0.365717410736355 -2.5803853614363095 C 0.29306149083906163 -2.580865094722321 0.2337305656560094 -2.5224370314442277 0.23309619754067246 -2.449782297137083 L 0.23309619754067246 -2.264112598663127 C 0.23309619754067246 -2.1920358523611263 0.2926315899861256 -2.133653687856505 0.365717410736355 -2.133653687856505 L 6.230746410822811 -2.133653687856505 C 6.303832231573041 -2.133653687856505 6.363367624018494 -2.1920358523611263 6.363367624018494 -2.264112598663127 L 6.363367624018494 -2.449782297137083 C 6.363367624018494 -2.5218590434390844 6.3038322315730415 -2.5803853614363095 6.230746410822811 -2.5803853614363095 Z" fill="none" transform="matrix(1,0,0,1,0,0)" fill-rule="nonzero" stroke-dasharray="none" stroke-miterlimit="10" stroke-linejoin="miter" stroke-linecap="butt" stroke-width="0.1468924089634788" stroke="#d72b43"></path></g><g clip-path="url(#a529e5822-fb5d-4c2c-8270-5fd138ba75be9f14179c-0bc7-41c4-bdcc-5111da26c844)"><path d=" M 0.9492507487973582 -4.6061743930003605 C 0.8993084517649188 -4.606574299760613 0.8584771579037914 -4.566452554449994 0.8580015879790244 -4.516510920600671 L 0.8580015879790244 -4.358518692706683 C 0.8580015879790244 -4.309218198236115 0.8989411798785613 -4.268999373799598 0.9492507487973582 -4.268999373799598 L 5.647213072761809 -4.268999373799598 C 5.697378488188002 -4.268999373799598 5.738318080087538 -4.309218198236115 5.738318080087538 -4.358518692706683 L 5.738318080087538 -4.516510920600671 C 5.737842476991786 -4.566395879748589 5.69709927260282 -4.606494413182032 5.647213072761808 -4.6061743930003605 Z" fill="#47be6c" transform="matrix(1,0,0,1,0,0)" fill-rule="nonzero"></path></g><g clip-path="url(#a529e5822-fb5d-4c2c-8270-5fd138ba75be9f14179c-0bc7-41c4-bdcc-5111da26c844)"><path d=" M 0.9492507487973582 -4.6061743930003605 C 0.8993084517649188 -4.606574299760613 0.8584771579037914 -4.566452554449994 0.8580015879790244 -4.516510920600671 L 0.8580015879790244 -4.358518692706683 C 0.8580015879790244 -4.309218198236115 0.8989411798785613 -4.268999373799598 0.9492507487973582 -4.268999373799598 L 5.647213072761809 -4.268999373799598 C 5.697378488188002 -4.268999373799598 5.738318080087538 -4.309218198236115 5.738318080087538 -4.358518692706683 L 5.738318080087538 -4.516510920600671 C 5.737842476991786 -4.566395879748589 5.69709927260282 -4.606494413182032 5.647213072761808 -4.6061743930003605 Z" fill="none" transform="matrix(1,0,0,1,0,0)" fill-rule="nonzero" stroke-dasharray="none" stroke-miterlimit="10" stroke-linejoin="miter" stroke-linecap="butt" stroke-width="0.1468924089634788" stroke="#47be6c"></path></g><g clip-path="url(#a529e5822-fb5d-4c2c-8270-5fd138ba75be9f14179c-0bc7-41c4-bdcc-5111da26c844)"><path d=" M 1.445138763355128 -6.328087862155173 C 1.4145428550573642 -6.328327920815908 1.3895241558278542 -6.303760589871466 1.389207208224775 -6.2731653814730475 L 1.389207208224775 -6.138814326366117 C 1.389207208224775 -6.108542092919277 1.4142899159378715 -6.083891845683992 1.445138763355128 -6.083891845683992 L 5.151036751218831 -6.083891845683992 C 5.181885598636088 -6.083891845683992 5.206968306349184 -6.108542092919277 5.206968306349184 -6.138814326366117 L 5.206968306349184 -6.2731653814730475 C 5.206968306349184 -6.303437614919888 5.181885598636088 -6.328087862155173 5.151036751218831 -6.328087862155173 Z" fill="#a667ba" transform="matrix(1,0,0,1,0,0)" fill-rule="nonzero"></path></g><g clip-path="url(#a529e5822-fb5d-4c2c-8270-5fd138ba75be9f14179c-0bc7-41c4-bdcc-5111da26c844)"><path d=" M 1.445138763355128 -6.328087862155173 C 1.4145428550573642 -6.328327920815908 1.3895241558278542 -6.303760589871466 1.389207208224775 -6.2731653814730475 L 1.389207208224775 -6.138814326366117 C 1.389207208224775 -6.108542092919277 1.4142899159378715 -6.083891845683992 1.445138763355128 -6.083891845683992 L 5.151036751218831 -6.083891845683992 C 5.181885598636088 -6.083891845683992 5.206968306349184 -6.108542092919277 5.206968306349184 -6.138814326366117 L 5.206968306349184 -6.2731653814730475 C 5.206968306349184 -6.303437614919888 5.181885598636088 -6.328087862155173 5.151036751218831 -6.328087862155173 Z" fill="none" transform="matrix(1,0,0,1,0,0)" fill-rule="nonzero" stroke-dasharray="none" stroke-miterlimit="10" stroke-linejoin="miter" stroke-linecap="butt" stroke-width="0.1468924089634788" stroke="#a667ba"></path></g><g clip-path="url(#a529e5822-fb5d-4c2c-8270-5fd138ba75be9f14179c-0bc7-41c4-bdcc-5111da26c844)"><path d=" M 1.4461478378033559 -5.853246257517588 C 1.2862816145055167 -5.853246257517588 1.1562551641767063 -5.981398712442546 1.1562551641767063 -6.138814326366117 L 1.1562551641767063 -6.2731653814730475 C 1.1562551641767063 -6.430580995396618 1.2862816145055167 -6.558589296828973 1.4461478378033559 -6.558589296828973 L 5.150027676770603 -6.558589296828973 C 5.309893900068442 -6.558589296828973 5.440064503889856 -6.430580995396618 5.440064503889856 -6.2731653814730475 L 5.440064503889856 -6.138814326366117 C 5.440064503889856 -5.981398712442546 5.309893900068443 -5.853246257517588 5.150027676770603 -5.853246257517588 Z M 1.4461478378033559 -6.380848040448238 C 1.3862301846466563 -6.381247951083773 1.3372902794367583 -6.333081799315928 1.3367353369169177 -6.2731653814730475 L 1.3367353369169177 -6.138814326366117 C 1.3367353369169177 -6.079278933920664 1.3857475244022786 -6.030987513898323 1.4461478378033559 -6.030987513898323 L 5.150027676770603 -6.030987513898323 C 5.21042799017168 -6.030987513898323 5.259584331149645 -6.079278933920664 5.259584331149645 -6.138814326366117 L 5.259584331149645 -6.2731653814730475 C 5.259029447258718 -6.333138485957561 5.210001428727663 -6.381327867329533 5.150027676770604 -6.380848040448238 Z" fill="#231f20" transform="matrix(1,0,0,1,0,0)" fill-rule="nonzero"></path></g><g clip-path="url(#a529e5822-fb5d-4c2c-8270-5fd138ba75be9f14179c-0bc7-41c4-bdcc-5111da26c844)"><path d=" M 2.3050143467380044 -4.658934571293425 C 2.0178605894708306 -4.658934571293425 1.763141368039558 -4.838982283555825 1.6713155932508081 -5.10710777979927 L 1.394973347928935 -5.913790724411269 C 1.3856453173890193 -5.940831185855903 1.3901700801533474 -5.970726939834499 1.4070822413076711 -5.99379591280649 C 1.42420160888594 -6.017194461948151 1.4514638838864884 -6.031013061064342 1.480456369043109 -6.0309875138983235 L 5.116151606008662 -6.0309875138983235 C 5.144982304529463 -6.0309875138983235 5.172371468124224 -6.017148778608339 5.189381580251496 -5.993940066299095 C 5.206273774282813 -5.970753143360812 5.210793369847009 -5.940783920393466 5.2014904736302325 -5.913646570918666 L 4.925292381800962 -5.10710777979927 C 4.8334666070122125 -4.838982283555825 4.57874738558094 -4.658934571293425 4.291593628313767 -4.658934571293425 Z" fill="#231f20" transform="matrix(1,0,0,1,0,0)" fill-rule="nonzero"></path></g><g clip-path="url(#a529e5822-fb5d-4c2c-8270-5fd138ba75be9f14179c-0bc7-41c4-bdcc-5111da26c844)"><path d=" M 1.5552720317045858 -0.25 C 1.1725445088409585 -0.25 0.8333513407437401 -0.4898714116930609 0.7109650255229415 -0.8469396128731752 L 0.32838165615191844 -1.9635525665837816 C 0.3191951662561219 -1.9906724592605531 0.32376513121529793 -2.0205654065229277 0.3406347030232587 -2.043701908471607 C 0.3577848132350683 -2.067046026492968 0.38504211499619273 -2.080808554101237 0.41400883075869616 -2.080749356070836 L 6.182454990800472 -2.080749356070836 C 6.211382041229854 -2.0808092775013574 6.238595920840725 -2.0670416258084563 6.255684965043306 -2.043701908471607 C 6.272675118576605 -2.0205651715759547 6.277302921365849 -1.9905920767665481 6.26808216540725 -1.9634084130911775 L 5.885498796036226 -0.8469396128731752 C 5.763112480815427 -0.4898714116930609 5.423775159225603 -0.25 5.04119178985458 -0.25 Z" fill="#231f20" transform="matrix(1,0,0,1,0,0)" fill-rule="nonzero"></path></g><g clip-path="url(#a529e5822-fb5d-4c2c-8270-5fd138ba75be9f14179c-0bc7-41c4-bdcc-5111da26c844)"><path d=" M 0.36672648518458306 -1.9030080996901004 C 0.16447913506116718 -1.9030080996901004 0 -2.065036625376999 0 -2.263968445170523 L 0 -2.449926450629687 C 0 -2.6490024239158143 0.16447913506116718 -2.811030949602713 0.36672648518458306 -2.811030949602713 L 6.2297373363745825 -2.811030949602713 C 6.431840533005395 -2.811030949602713 6.5963196680665614 -2.6490024239158143 6.5963196680665614 -2.449926450629686 L 6.5963196680665614 -2.263968445170523 C 6.5963196680665614 -2.065036625376999 6.431840533005395 -1.9030080996901004 6.2297373363745825 -1.9030080996901004 Z M 0.36672648518458306 -2.633289693221978 C 0.2647249576159296 -2.6339296653120887 0.18143146918918207 -2.5519255497712034 0.18048017274021153 -2.449926450629686 L 0.18048017274021153 -2.263968445170523 C 0.1804801727402115 -2.1629168468551168 0.2640891984505331 -2.080749356070836 0.36672648518458306 -2.080749356070836 L 6.2297373363745825 -2.080749356070836 C 6.332374623108633 -2.080749356070836 6.41583949532635 -2.1629168468551168 6.41583949532635 -2.263968445170523 L 6.41583949532635 -2.449926450629686 C 6.41583949532635 -2.550978048945092 6.332374623108632 -2.633289693221978 6.2297373363745825 -2.633289693221978 Z" fill="#231f20" transform="matrix(1,0,0,1,0,0)" fill-rule="nonzero"></path></g><g clip-path="url(#a529e5822-fb5d-4c2c-8270-5fd138ba75be9f14179c-0bc7-41c4-bdcc-5111da26c844)"><path d=" M 1.9604874994144377 -2.633289693221978 C 1.6293669269030433 -2.633289693221978 1.3358704159612935 -2.8408707225717422 1.2300617523899555 -3.1497916572221203 L 0.9048514730753252 -4.098898252526874 C 0.8955897939913523 -4.126011504516473 0.9001651773223274 -4.155939894304969 0.9171045199466656 -4.179047594414699 C 0.9342091128791895 -4.202368977588325 0.9614130025641394 -4.21613157532264 0.9903344941894989 -4.216095042013928 L 5.605985173877063 -4.216095042013928 C 5.634906665502423 -4.21613157532264 5.662110555187373 -4.202368977588325 5.679215148119897 -4.179047594414699 C 5.696225077453273 -4.15596913934627 5.700805974306325 -4.126004684636886 5.691468194991237 -4.098898252526874 L 5.366402069169211 -3.14979165722212 C 5.260449252105269 -2.8408707225717422 4.966952741163519 -2.633289693221978 4.635976322144729 -2.633289693221978 Z" fill="#231f20" transform="matrix(1,0,0,1,0,0)" fill-rule="nonzero"></path></g><g clip-path="url(#a529e5822-fb5d-4c2c-8270-5fd138ba75be9f14179c-0bc7-41c4-bdcc-5111da26c844)"><path d=" M 0.9502598232455862 -4.038353785633193 C 0.7709328784462067 -4.038353785633193 0.625049543930956 -4.182074817759384 0.625049543930956 -4.358518692706683 L 0.625049543930956 -4.516655074093275 C 0.625049543930956 -4.693098949040574 0.7709328784462067 -4.836819981166765 0.9502598232455862 -4.836819981166765 L 5.646203998313581 -4.836819981166765 C 5.825386789620357 -4.836819981166765 5.971270124135607 -4.693098949040574 5.971270124135607 -4.516655074093275 L 5.971270124135607 -4.358518692706683 C 5.971270124135607 -4.182074817759384 5.825386789620357 -4.038353785633193 5.646203998313581 -4.038353785633193 Z M 0.9502598232455862 -4.6590787247860295 C 0.8709957641951133 -4.659638468501482 0.8062432812496264 -4.595917897634807 0.8055297166711675 -4.516655074093275 L 0.8055297166711675 -4.358518692706683 C 0.806243281249627 -4.27925586916515 0.8709957641951143 -4.215535298298476 0.9502598232455872 -4.216095042013929 L 5.646203998313581 -4.216095042013929 C 5.725411945973397 -4.215615141275126 5.790076375477994 -4.279312505532895 5.7907899513953955 -4.358518692706683 L 5.7907899513953955 -4.516655074093275 C 5.7907899513953955 -4.595218727562456 5.725920879723594 -4.6590787247860295 5.646203998313581 -4.6590787247860295 Z" fill="#231f20" transform="matrix(1,0,0,1,0,0)" fill-rule="nonzero"></path></g><g clip-path="url(#a529e5822-fb5d-4c2c-8270-5fd138ba75be9f14179c-0bc7-41c4-bdcc-5111da26c844)"><path d=" M 1.8546788358430994 -5.185383126283243 C 1.9232200636720405 -4.988704956437896 2.1091348429575834 -4.857290428650078 2.317411547101948 -4.858298851564761 L 4.303846675185107 -4.858298851564761 C 4.513590006923931 -4.858298851564761 4.699548012383095 -4.989766836819611 4.766579386443956 -5.185383126283243 L 5.002846960821916 -5.874869281408189 L 1.618411261465139 -5.874869281408189 Z" fill="#ffffff" transform="matrix(1,0,0,1,0,0)" fill-rule="nonzero"></path></g><g clip-path="url(#a529e5822-fb5d-4c2c-8270-5fd138ba75be9f14179c-0bc7-41c4-bdcc-5111da26c844)"><path d=" M 1.4134249949822473 -3.2282111571986976 C 1.4945834113183007 -2.9916552758355293 1.7193187062879411 -2.8327981269859186 1.9728846997783818 -2.8327981269859186 L 4.648373522508673 -2.8327981269859186 C 4.901939515999114 -2.8327981269859186 5.126674810968754 -2.9916552758355293 5.207833227304808 -3.2282111571986976 L 5.492824682182921 -4.059976809523794 L 1.1284335401041337 -4.059976809523794 Z" fill="#ffffff" transform="matrix(1,0,0,1,0,0)" fill-rule="nonzero"></path></g><g clip-path="url(#a529e5822-fb5d-4c2c-8270-5fd138ba75be9f14179c-0bc7-41c4-bdcc-5111da26c844)"><path d=" M 0.8943282681152331 -0.9252149593571497 C 0.991776029115539 -0.6405118114642443 1.2623521347332523 -0.4492201267787319 1.56766923206853 -0.4492201267787319 L 5.053588990218525 -0.4492201267787319 C 5.3587619340611985 -0.4492201267787319 5.629338039678912 -0.6405118114642443 5.726785800679218 -0.9252149593571497 L 6.069294499106328 -1.9244869700880969 L 0.5519637231807265 -1.9244869700880969 Z" fill="#ffffff" transform="matrix(1,0,0,1,0,0)" fill-rule="nonzero"></path></g><g clip-path="url(#a529e5822-fb5d-4c2c-8270-5fd138ba75be9f14179c-0bc7-41c4-bdcc-5111da26c844)"><path d=" M 5.23421331645134 -3.3840410827036247 C 5.232357195107124 -3.402299732245929 5.2210963548418485 -3.418261700000591 5.204517696974916 -3.426133902543993 C 5.207642414587091 -3.430123531154487 5.20985647723037 -3.434748462009338 5.211004604142096 -3.4396843308487695 C 5.213913935461114 -3.454156940599518 5.208919321767686 -3.469085895815035 5.197886636315132 -3.4788940808370583 C 5.2059173874872045 -3.5074756943457417 5.199927842339436 -3.538172113228053 5.181741445143484 -3.561638185591756 C 5.182750519591711 -3.56466540893644 5.183182980069524 -3.567980939266332 5.183182980069524 -3.571440623088828 C 5.183182980069524 -3.5901805771273483 5.168046863346103 -3.606037461313789 5.147144606918523 -3.611515294032741 C 5.143684923096027 -3.6374629227014617 5.1201879038015745 -3.659806714055082 5.0893390563843175 -3.664275472325806 C 5.08273736344692 -3.6651150518456825 5.0760590412495095 -3.6651634454847937 5.069445874404965 -3.6644196258184096 L 5.0697341813901735 -3.6665819282074703 C 5.072761404734857 -3.6907997149649425 5.052724069262901 -3.7137201202889787 5.024758291697725 -3.7176122645892873 C 5.015532464546747 -3.7190188574708896 5.0060998657300795 -3.718025952332293 4.997369128102964 -3.7147291947372065 C 4.990107021660592 -3.725761182295805 4.978743995711308 -3.733440304855139 4.965799513222688 -3.736063911642599 C 4.965943666715291 -3.752353256306852 4.953834773336555 -3.768065987000688 4.935959740253659 -3.77426458718266 C 4.930481907534706 -3.8010771368070047 4.90323689743255 -3.8208261652937527 4.871090668581857 -3.819961244338129 C 4.858161287403687 -3.8195805686595325 4.845569109233374 -3.8157481666076984 4.834619834953045 -3.808861425407621 C 4.826691392859825 -3.823853388638437 4.808383899299116 -3.8342324401059256 4.787193335886328 -3.8342324401059256 L 4.786040107945496 -3.8342324401059256 C 4.770668375432744 -3.8591224527148125 4.742878893014321 -3.873570769271005 4.713675054658286 -3.87185650167557 C 4.690284161348609 -3.8714167709183678 4.668155759101921 -3.8611634214139925 4.6526981272867936 -3.8436024171251857 C 4.647315495768241 -3.850031493903926 4.639577158624839 -3.8540305003471604 4.631219256888797 -3.8547022360556937 C 4.622084287477035 -3.8557452612296843 4.612981388398988 -3.852498028225235 4.606569009653512 -3.8459088730068496 C 4.596425486610177 -3.853481264508103 4.584419851198166 -3.858163960477933 4.571828017935948 -3.859459301311626 C 4.549530795445569 -3.861948006772177 4.527508441326433 -3.8528671842094715 4.513445853431326 -3.835385668046757 C 4.499214883302091 -3.8474898800167456 4.4809366801227295 -3.8537714033628925 4.462271363556906 -3.852972394144446 C 4.430413441691421 -3.851963319696218 4.4040333525448885 -3.8323584447020735 4.39653737092948 -3.8065549695259566 L 4.39509583600344 -3.8066991230185603 C 4.380619057776908 -3.808312287808613 4.366167540044674 -3.8034599533875704 4.355597779029944 -3.7934370016989925 C 4.347764944961251 -3.798533827825738 4.338810684457847 -3.8016505041335527 4.329505996868619 -3.8025186717330444 C 4.301540219303442 -3.8049692811073124 4.277178279053366 -3.7873825550096245 4.275304283649514 -3.762876461266944 L 4.27516013015691 -3.7607141588778834 C 4.2688910432096 -3.763029922936563 4.262350740992986 -3.7645317701122303 4.25569940865537 -3.765182917148608 C 4.2242739472676964 -3.768065987000688 4.197605551135957 -3.750623414395604 4.189388802057528 -3.725396553189903 C 4.187226499668468 -3.725829013667715 4.185640811249824 -3.728135469549379 4.183478508860764 -3.728423776534587 C 4.190489439478399 -3.7504060048219587 4.185515981577399 -3.77445349357405 4.1703605410338 -3.7918513132803486 C 4.156049519619146 -3.8081077533583696 4.135209533049082 -3.8170996257363163 4.1135640649478225 -3.816357407023029 C 4.110536841603139 -3.8516750127110093 4.0680115612849574 -3.8672435899122415 4.035721178941661 -3.8495127103219495 C 4.035288718463849 -3.8647929805379735 4.023612285562924 -3.877766794872334 4.006169712957841 -3.88050571123181 C 4.002596854895019 -3.881104496158222 3.9989578937908394 -3.8812015351210003 3.9953582010125404 -3.880794018217018 C 3.9959348149829568 -3.9008313536889747 3.9810870052447447 -3.9182739262940585 3.95859906039852 -3.9217336101165547 C 3.948175427124244 -3.9233578885966587 3.9375043471294346 -3.921905018550417 3.927894366473867 -3.9175531588310384 C 3.907304265867669 -3.93392844428933 3.878137562689312 -3.93392844428933 3.8575474620831143 -3.9175531588310384 C 3.8548036077599095 -3.9200014774948344 3.8518625195465135 -3.9222193472951004 3.8487540990342697 -3.9241842194908227 C 3.818193558602221 -3.943644940992363 3.7750916643136248 -3.933554196510083 3.7526037194674 -3.901552121151995 C 3.7503901060024543 -3.8983372187762364 3.7484147327427815 -3.894964630284112 3.7466934262706357 -3.891461376669714 C 3.7185834952128554 -3.8956418279552305 3.6875904943029947 -3.877910948364938 3.6800945126875866 -3.851242552233197 C 3.670163589179889 -3.8562495612274823 3.6588087866659653 -3.857675276341338 3.647948283836894 -3.8552788500261093 C 3.624451264542441 -3.8498010173071573 3.6055671570113175 -3.823276774668021 3.6103242222672494 -3.80165375077742 C 3.5956748875135602 -3.802255248799264 3.581395843450301 -3.7969590215467095 3.570682011801148 -3.786950094531812 C 3.562136206608419 -3.787077503941654 3.553623448945712 -3.7858613957041243 3.545455150595448 -3.7833462572167122 C 3.523084869954482 -3.775906446675418 3.5045446907484195 -3.7599556779729957 3.4938482002432147 -3.7389469814946796 C 3.4910662548149123 -3.738528776457927 3.488319623131913 -3.73790235168812 3.4856314511647866 -3.7370729860908276 C 3.4526203013584698 -3.7277030090715675 3.4325829658865135 -3.6958450872060826 3.440078947501921 -3.665717007251846 C 3.4067333878010566 -3.641880911532321 3.3950002804291755 -3.597730559050498 3.4121131699367453 -3.5604849576509237 C 3.408294317953316 -3.558063197812484 3.40488765682365 -3.5550458693833518 3.402022425454465 -3.551547441109476 C 3.386598001745836 -3.533384101041371 3.3877512296866685 -3.505994937446611 3.403175653395296 -3.4859576019746545 C 3.39282411095609 -3.4791749154538865 3.3869724046931897 -3.4673058885998898 3.3878953831792726 -3.454964601064794 C 3.388327843657084 -3.4515049172422976 3.3899135320757283 -3.448766000882822 3.391355067001768 -3.4458829310307415 C 3.383282471415945 -3.451360763749694 3.3753540293227235 -3.457415210439062 3.366128205796068 -3.4584242848872897 C 3.375275839044731 -3.4734702017387926 3.37295390035565 -3.4928196908144646 3.3605062195845115 -3.5052741699835908 C 3.3633976398752656 -3.5120249574247877 3.3632400513427414 -3.5196942660076496 3.360073759106699 -3.5263205799037753 L 3.3586322241806594 -3.5287711892780433 C 3.3621077402949915 -3.544857221616145 3.3572280914696826 -3.561610682583039 3.3456584098462994 -3.57331461849268 C 3.335196143389395 -3.584274217120688 3.3205858227907874 -3.5902963922778195 3.3054395854097827 -3.5898922701421405 C 3.292572556856753 -3.601931390331553 3.276320011174598 -3.609730599559832 3.25887800729869 -3.612236061495761 C 3.2602250465166445 -3.6233927223709856 3.2588907221374064 -3.634709769883789 3.254985862998381 -3.6452472113020775 C 3.2431665104716503 -3.676036556830217 3.211683443460859 -3.6946157481781405 3.179016972396072 -3.690078947501922 C 3.173357542978591 -3.6896184504922425 3.1677568507324336 -3.6886045320683687 3.1622951672540083 -3.6870517241572385 C 3.1554534027651244 -3.6977817755619853 3.144954670250317 -3.7056686282804256 3.1327437012701873 -3.709251362018255 C 3.1091025284831315 -3.717035650618871 3.0847405882330547 -3.7119902783777308 3.071046006435674 -3.6981515430877465 C 3.05754097480695 -3.7042208973639577 3.04267027195201 -3.7066081673874933 3.0279441121470776 -3.7050709107327386 C 3.007078181199214 -3.728334457802186 2.974288293840963 -3.736801863723121 2.9447675469145675 -3.726549781130735 C 2.933925527708155 -3.7228191551344842 2.924137255496291 -3.7165408189177835 2.916225155378975 -3.708242287570027 L 2.914062852989915 -3.7089630550330472 C 2.8709609587013185 -3.7233784042934475 2.8213721572455412 -3.6993047710285785 2.7987400589067133 -3.654617188321338 L 2.794703761113801 -3.6550496487991495 C 2.788969773535455 -3.6592995788969693 2.782595130144186 -3.6626085540924374 2.7758196535826767 -3.664852086296222 C 2.7350242151757436 -3.678546668093602 2.6878860230942347 -3.653031499902694 2.67044345048915 -3.608055610210245 C 2.6674953768248404 -3.6006110133446607 2.665556141788189 -3.5928055923221396 2.6646773107849904 -3.5848468979010004 C 2.640302363460089 -3.5750490815416445 2.6228861665142675 -3.5531419155720583 2.618836500136917 -3.527185500859399 C 2.6035392796670678 -3.5304137964315476 2.5879399069314317 -3.523200552647776 2.5804916711042525 -3.5094546212691067 C 2.578065623368277 -3.504872119865152 2.576733458818176 -3.4997901588036564 2.5765995268039443 -3.494606811530895 C 2.5682423990619583 -3.487816605683747 2.560910842631479 -3.4798538556532925 2.554832349420741 -3.4709656387438383 C 2.5463428227538647 -3.470055231223851 2.538088690666856 -3.467613180310535 2.530470409170664 -3.4637579641136376 C 2.5153874862914867 -3.4563938759123864 2.5041470139664135 -3.4429641050458137 2.4995540819583155 -3.426820086550284 C 2.494961149950218 -3.4106760680547548 2.497448997598397 -3.393340625236678 2.506396775905795 -3.3791398639550883 C 2.5069733898762108 -3.3781307895068604 2.507694157339231 -3.3774100220438403 2.508414924802251 -3.3765451010882166 C 2.502504631605486 -3.374094491713948 2.496017724438307 -3.3729412637731166 2.4911165056897704 -3.3694815799506204 C 2.4138502336540246 -3.4415583262526215 2.4301395783182778 -3.54232161758282 2.4227877501954733 -3.6453913647946816 C 2.419760526850789 -3.6867634171720303 2.306888342141855 -3.720495334441367 2.203241980959577 -3.7356314511647875 C 2.2100840925508507 -3.7535249237170514 2.2073693020425886 -3.77366866928835 2.196034306329377 -3.7891123969208724 C 2.1778709662612723 -3.8126094162153246 2.1419767466028756 -3.817510634963861 2.109974671244787 -3.8032394391960644 C 2.1094342137684157 -3.804207262916719 2.1088069722230856 -3.8051240005598927 2.108100675840935 -3.805978355555541 C 2.097433317388238 -3.8196729373529212 2.0778284423940936 -3.8239975421310413 2.0586560278777615 -3.8186638629046925 C 2.0571064583854297 -3.823395698082063 2.054766942259585 -3.8278310307373107 2.0517366602327702 -3.831781830731657 C 2.0345823946128934 -3.8539814685926737 1.9994089424175168 -3.857296998922566 1.9697133229410921 -3.8410076542583136 C 1.960744799771137 -3.8492573797731517 1.9486858100100446 -3.853294519823605 1.9365580196421721 -3.8521074731888216 C 1.9346573340549411 -3.8576090486213803 1.9318828833867898 -3.862768553372679 1.928341270563743 -3.867387743404846 C 1.9094571630326194 -3.8913172231771105 1.8721214084481825 -3.898669051299914 1.835506421326766 -3.88843415332503 C 1.837904393754061 -3.8972603298879744 1.8360377797351974 -3.9067000636405105 1.8304610490856257 -3.9139493215159384 C 1.8215235325441772 -3.925481600924259 1.8045134204169055 -3.929662052209775 1.786926694319217 -3.926490675372487 C 1.7829776461671998 -3.9300886334057057 1.7782367633914782 -3.9327059957714683 1.7730879590292323 -3.9341308104804993 C 1.7715654039278148 -3.9377372730529894 1.7695785152922208 -3.9411295219430285 1.7671776658324683 -3.9442215549627795 C 1.7495909397347802 -3.9665653463163997 1.7108136502243039 -3.9700250301388955 1.677802500417987 -3.9531590715042277 L 1.676360965491947 -3.9547447599228716 C 1.6610806952759218 -3.969880876646292 1.6310967688142894 -3.9684393417202517 1.609185437938481 -3.9514292295929794 L 1.6064465215790056 -3.9491227737113155 C 1.599671307426617 -3.9525824575338113 1.589868869929545 -3.951717536578187 1.5815079673585133 -3.9466721643370475 C 1.5760633331972846 -3.9435736378129955 1.5720711180347064 -3.9384407897468234 1.570408148428004 -3.932400968569251 C 1.5459337862120055 -3.936638992372502 1.522056863578485 -3.922276010634086 1.514332439805048 -3.898669051299914 L 1.5137558258346318 -3.8982365908221026 C 1.508236957239293 -3.8951553901196228 1.5042244152641309 -3.8899442966453863 1.502656006904123 -3.883821241561702 C 1.4913367815757106 -3.8822091083586865 1.4806447254833282 -3.8776339029610156 1.4716630059942633 -3.8705591202421337 C 1.449895828611058 -3.8536931616074654 1.4444179958921062 -3.827601379446141 1.4595541126155265 -3.812465262722721 L 1.4601307265859427 -3.8118886487523045 C 1.447012758758978 -3.7973291459993 1.4431206144586703 -3.7793099594238 1.4511932100444942 -3.765327070641212 C 1.4232274324793177 -3.743704046750611 1.4141457624452651 -3.7111253574221066 1.4314441815577454 -3.6892140265462983 C 1.4345800027875164 -3.685185148038948 1.4383830285974815 -3.681723419417057 1.442688153980858 -3.678979128571414 C 1.4301468001243096 -3.663410551370182 1.4276961907500416 -3.6445264438390574 1.4383635492027373 -3.6309760155342814 C 1.4430197468555765 -3.6252578557769173 1.4492259954640978 -3.6210035724565595 1.4562385822856332 -3.6187229686629405 C 1.4379310887249257 -3.5981090192205682 1.4324532560059733 -3.57187308356664 1.4421115400104418 -3.5496734457056234 C 1.4360570933210732 -3.5454929944201075 1.432741562991181 -3.5394385477307395 1.4330298699763895 -3.5338165615191834 C 1.4282567710548912 -3.532299758699531 1.4237016265474494 -3.530167563398175 1.4194794416716132 -3.5274738078446073 C 1.3990096457218448 -3.514211686525039 1.3915136641064365 -3.4911471277083983 1.4030459435147564 -3.4760110109849784 C 1.4055680882349693 -3.4726923481854426 1.408760645329435 -3.469941837457903 1.4124159205340179 -3.467938415399154 C 1.3971356503179924 -3.454676294079586 1.3913695106138326 -3.435936340041066 1.3984330317514286 -3.421520990780665 C 1.3869007523431087 -3.413160088209633 1.3828644545501965 -3.3994655064122528 1.3897838221951886 -3.3903838363782004 C 1.3926932034318462 -3.3867640519230107 1.3967696039675488 -3.384267256594893 1.4013161016035085 -3.3833203152406046 C 1.3966102827836986 -3.365699655705729 1.40444166042236 -3.347129798123147 1.4203443626272372 -3.3382002720555515 C 1.413569148474849 -3.3258030716916074 1.413424994982245 -3.311964336401623 1.4213534370754657 -3.301585284934135 C 1.4243443937999152 -3.2975950973769086 1.4282499716507264 -3.294381647246494 1.4327415629911817 -3.2922153079148746 C 1.4229391254941093 -3.273763660861562 1.4227949720015058 -3.2534380184043976 1.4344714049024296 -3.2380135946957695 C 1.4395448278202274 -3.2314338855395803 1.4461858573909079 -3.2262300937118087 1.4537879729113663 -3.2228774779723492 C 1.4540646286319285 -3.21771110671049 1.4558709890072672 -3.2127436156783102 1.4589774986451103 -3.208606282204553 C 1.464664202244281 -3.201524539509 1.4731142555821182 -3.1972207856350705 1.482186210954355 -3.196785695811025 C 1.4834916472935695 -3.193984525709306 1.48508597851546 -3.191327307006156 1.4869432762102874 -3.1888572537178046 C 1.5025118534115196 -3.168387457768036 1.5339373147991924 -3.16492777394554 1.563632934275617 -3.1750185184278203 C 1.5656510831720727 -3.1738652904869884 1.5665160041276966 -3.171702988097928 1.568678306516757 -3.1708380671423044 C 1.5675250785759252 -3.1446021314883756 1.5866974930922573 -3.1186545028196555 1.6162489590760774 -3.1092845258003954 C 1.6225919776544022 -3.107228205514689 1.6291901096706498 -3.1060638292765277 1.6358538340702218 -3.105824841977899 L 1.6351330666072024 -3.103806693081443 C 1.627781238484398 -3.080309673786991 1.643493969178234 -3.054506198610874 1.6703065188025787 -3.0460011425472375 C 1.6791639697910425 -3.043228640002701 1.6885597945443362 -3.042635219491966 1.6976956823973393 -3.0442713006359896 C 1.7029675910628703 -3.0322790684791925 1.712758126586744 -3.022851145382129 1.7249406924994957 -3.0180353649820617 C 1.721913469154812 -3.0020343273030172 1.7309951391888643 -2.9845917546979326 1.7475727908383245 -2.9755100846638807 C 1.7481494048087407 -2.948265074561724 1.7715022706105887 -2.9241914412968555 1.8033601924760738 -2.9198668365187355 C 1.8161615293850009 -2.91814098542596 1.8291916043543568 -2.919831911185342 1.8411284075383223 -2.9247680552672715 C 1.846317933272067 -2.908767017588227 1.8624631244437146 -2.8953607427760546 1.8833653808712953 -2.8919010589535588 L 1.884518608812127 -2.8917569054609547 C 1.8931678183683671 -2.8668183512404624 1.9176739121110478 -2.8470693227537143 1.948955220006116 -2.8427447179755942 C 1.9722378432680796 -2.8393690174772064 1.9958787160589373 -2.8457880624071743 2.014256752155729 -2.8604755975658867 C 2.0182761978156316 -2.853196361663125 2.0251894694071413 -2.8479590346998602 2.033285013179458 -2.8460602483054864 C 2.0421630507393838 -2.843513512151475 2.051718027557007 -2.845159091492288 2.0592326418481783 -2.85052900657621 C 2.067876977639071 -2.841420496549812 2.0788415668844045 -2.834841743002612 2.0909464102210586 -2.831500745552482 C 2.1126232187575047 -2.8254595846271306 2.1358847884073255 -2.8307734163886282 2.1527882585481755 -2.845627787827674 C 2.164675715191047 -2.83132818042285 2.181602653719896 -2.822142219879755 2.200070604122289 -2.8199684661441617 C 2.2316402190025655 -2.8156438613660417 2.2610475314937815 -2.8304916711042534 2.2730122713799137 -2.8547094578617265 L 2.274597959798558 -2.854276997383914 C 2.2886490139639917 -2.850351364087322 2.3037143998621343 -2.852774468112898 2.315825858683303 -2.8609080580436985 C 2.322625997639789 -2.8545587724293924 2.330899036756409 -2.8500011700417933 2.3398994919481715 -2.8476459367241302 C 2.367000348557724 -2.840582415586534 2.3941012051672765 -2.8539886903987064 2.400443958841853 -2.8776298631857626 L 2.401020572812269 -2.8797921655748224 C 2.406783140662639 -2.8764971524458653 2.4129327305133863 -2.873930788177443 2.419328066372978 -2.8721520304668102 C 2.454213211583146 -2.8630703604327588 2.489098356793315 -2.880368779545239 2.497315105871743 -2.9107851664846836 C 2.4978917198421593 -2.9128033153811392 2.498180026827367 -2.9148214642775954 2.498468333812575 -2.9168396131740515 C 2.5404170001603394 -2.9220291389077957 2.57573460584832 -2.9485533815469323 2.5861136573158086 -2.9873306710574092 C 2.587396466798162 -2.9921977537802467 2.5882644937937407 -2.9971647971438373 2.5887084201826807 -3.002178480795621 C 2.602691308965269 -3.0076563135145733 2.6132145139253615 -3.019188592922893 2.615376816314421 -3.0334597886906898 C 2.6163149256691107 -3.0394105330842143 2.6157702662252236 -3.0455008159567707 2.6137911278957775 -3.051190668280982 C 2.6382038892267614 -3.0672816491478154 2.6548940249225685 -3.0927341060839217 2.659920245529058 -3.1215375726717354 C 2.6778499584358504 -3.126429360346403 2.6919405213857233 -3.1403014649559675 2.6971118466208903 -3.158152559793152 C 2.699777319263311 -3.1682076806605934 2.699222741159778 -3.1788454970101765 2.695526158202247 -3.188568946732597 C 2.698120921069119 -3.1902987886438448 2.6999949164729706 -3.1930377050033205 2.702445525847239 -3.195055853899777 C 2.710990260327215 -3.1879213380646694 2.7209707241241814 -3.182709864357879 2.731708684845852 -3.1797755836837527 L 2.734880061683139 -3.1790548162207326 C 2.732300893799204 -3.1369150907926495 2.7273921731289805 -3.094950341533486 2.72017640543753 -3.0533529706700433 C 2.7163064630978146 -3.031447217630179 2.711156160592995 -3.0097870669089724 2.704751981728902 -2.98848389899824 L 2.706049363162338 -2.98848389899824 C 2.697400153606098 -2.9714737868709684 2.7259425451416908 -2.938895097542464 2.776252114060488 -2.9117942409329114 C 2.8303096737869886 -2.882531081934299 2.8871061498729653 -2.871431263003791 2.90310718755201 -2.886855686712419 C 2.9046928759706536 -2.8884413751310625 2.90382795501503 -2.890891984505331 2.904404568985446 -2.892910133401787 L 2.9049811829558623 -2.892189365938767 C 2.9133420855268946 -2.903433338361879 2.920838067142302 -2.9149656177701995 2.9299197371763546 -2.9259212832081034 C 2.964090959124951 -2.9673104508186627 3.002608619403922 -3.00490987327417 3.044810070781745 -3.0380727004540184 C 3.056918964160481 -3.029279337405174 3.0704693924652573 -3.027117035016113 3.0704693924652573 -3.027117035016113 C 3.0704693924652573 -3.027117035016113 3.0685953970614057 -3.0302884118534017 3.0867587371295095 -3.021350895311954 C 3.0919482628632533 -3.018756132445082 3.1168868170837465 -3.0207742813415375 3.130293091895919 -3.0240898116714297 C 3.1385098409743466 -3.0261079605678853 3.1559524135794312 -3.007512160021969 3.1762780560365957 -3.0114043043222773 C 3.184261403991618 -3.0010432719800213 3.1942660959816074 -2.9924117730082664 3.2056853685278126 -2.9860332896239727 C 3.2479686964900836 -2.962320802240761 3.3009129486149624 -2.9700110288063857 3.3347027444083945 -3.004773243662493 C 3.3548615951344662 -3.005249905701821 3.3735154242705843 -3.0155474323521445 3.3846608632471917 -3.0323517668916176 C 3.395806302223799 -3.04915610143109 3.3980367196720165 -3.0703464207906532 3.390634299538748 -3.0891030368358345 C 3.4015463044966547 -3.1079662260122727 3.4058103596764306 -3.1299464152127827 3.402743192917484 -3.1515214991333678 C 3.4167364556683997 -3.1657660137821755 3.4167364556683997 -3.1885956278515852 3.402743192917484 -3.202840142500393 L 3.4005808905284236 -3.2050024448894527 C 3.4155728537592402 -3.214228268416109 3.4263843657045405 -3.2295085386321336 3.4291232820640163 -3.2481043391780497 C 3.431532652491862 -3.265272872439285 3.426906264268832 -3.2826868056383294 3.4162936212222603 -3.296395759200391 C 3.4229795135655983 -3.3107431030566508 3.421322162302001 -3.327592840903223 3.4119690164441394 -3.3403625744446113 C 3.4132663978775764 -3.3433897977892957 3.413122244384972 -3.3465611746265838 3.413698858355388 -3.3497325514638714 C 3.418311770118716 -3.344831332715336 3.4224922214042324 -3.3394976534889875 3.4281142076157884 -3.3358938161738876 C 3.4257557325246855 -3.3269030243028217 3.425855303247394 -3.3174438056455116 3.428402514600996 -3.308504652579127 C 3.4369075706646326 -3.2779441121470785 3.4709277949191772 -3.260934000019806 3.5043714052033055 -3.270592284024274 L 3.5079752425184063 -3.2718896654577105 L 3.505668786636742 -3.265835218768342 C 3.50296585223065 -3.2565436483682477 3.5040974056114482 -3.2465565498185565 3.5088106349732135 -3.2381052419974594 C 3.5135238643349793 -3.229653934176363 3.5214259814795326 -3.2234427269564585 3.5307514943498384 -3.220859329075893 C 3.5323689776584803 -3.2093703051218583 3.5402679834423463 -3.1997468684978525 3.5512212902996065 -3.1959207748554004 C 3.5513193525963467 -3.1774867232334523 3.563054458686987 -3.1611269447918207 3.58048444929822 -3.1551253364484677 C 3.588667317037497 -3.1520557429838187 3.5974494216288067 -3.1509209766602226 3.6061437709817317 -3.151809806118576 C 3.6203741008953383 -3.1349603057822386 3.642247859506861 -3.1265808062146405 3.6640934750085408 -3.12961016825756 C 3.6661870155591894 -3.107550585324358 3.682352734349706 -3.089400626682298 3.7040239924598497 -3.0847784320577145 C 3.715751597031293 -3.0828332361584194 3.727793702102762 -3.0847559252034435 3.738332523699602 -3.090256264776667 C 3.75087387755615 -3.066326785004402 3.7808578040177827 -3.054217891625666 3.810265116508999 -3.062722947689302 C 3.817651383051583 -3.064774325457598 3.824626010358735 -3.06809093144981 3.8308790659513714 -3.0725253851863745 C 3.860701357706631 -3.064918749180072 3.892124683422814 -3.0765017999002704 3.909875179898365 -3.101644390692383 C 3.9104517938687815 -3.102221004662799 3.9107401008539893 -3.102941772125819 3.9111725613318016 -3.103662539588839 C 3.980654544766931 -3.0700747758121065 4.045523616438732 -3.0250988861196575 4.090499506131181 -2.9661401076446205 C 4.173820224856295 -2.8564392997729744 4.403456738574471 -2.984880061683141 4.313360805696969 -3.1091403723077913 C 4.294476698165845 -3.1352321544691155 4.267519995048897 -3.1853975698953083 4.243590515276631 -3.2442121948777416 C 4.255068087200954 -3.248423909208667 4.265530010937913 -3.2550055889305103 4.274295209201284 -3.2635287628866783 C 4.363382067630558 -3.2052907518746614 4.36525606303441 -3.103230079111027 4.391059538210527 -3.003043401751245 C 4.409799492249047 -2.930245887986224 4.777246744896651 -2.94091324643892 4.789932252245802 -2.984015140727517 C 4.808383899299114 -3.0467219100102576 4.809825434225155 -3.1608914761526283 4.897470757728389 -3.226337161794845 C 4.907410528240877 -3.2162747287487075 4.920184491842254 -3.2094854173857708 4.934085744849805 -3.206876440293305 C 4.948263516858449 -3.203901714276496 4.963022275516298 -3.2055696561796094 4.976178564690174 -3.211633505549237 C 4.98035901597569 -3.203849216948621 4.990593913950574 -3.1988038447074807 5.001982039866291 -3.199812919155709 C 5.010031059309451 -3.2002523561752496 5.017518956952601 -3.2040748493776965 5.022595989308663 -3.2103361241158015 C 5.030005068030627 -3.207344358890671 5.037749887692385 -3.205262938606573 5.045660548125303 -3.204137523933829 C 5.0916455122659805 -3.197650616766649 5.133017564643329 -3.2247514733762017 5.138062936884469 -3.2649702978127184 L 5.1383512438696775 -3.268862442113026 C 5.141764906856294 -3.2686700656969983 5.145188721515239 -3.268766511180349 5.148586141844562 -3.2691507490982343 C 5.183327133562126 -3.272322125935522 5.209563069216054 -3.299278829052471 5.207112459841786 -3.3295510624993114 C 5.206991001134785 -3.3309533925024652 5.206798549637362 -3.3323486658587758 5.206535845871371 -3.333731513784828 C 5.224466808540919 -3.3439834811187357 5.235152871627607 -3.3634076270419326 5.23421331645134 -3.3840410827036247" fill="#80cc28" transform="matrix(1,0,0,1,0,0)" fill-rule="nonzero"></path></g><g clip-path="url(#a529e5822-fb5d-4c2c-8270-5fd138ba75be9f14179c-0bc7-41c4-bdcc-5111da26c844)"><path d=" M 4.3437771926364155 -4.944070179664143 C 4.252239724832873 -5.012398935158441 4.23623868715383 -5.1229646639857105 4.284962567653983 -5.2263227181827805 C 4.307882972978019 -5.275046598682933 4.366120983990036 -5.340348130832546 4.464433665945966 -5.397432913903732 C 4.511571858027475 -5.424822077498492 4.594315962782172 -5.544613629852418 4.681672979300198 -5.482627628032697 C 4.717567198958594 -5.457112459841788 4.731982548218995 -5.41141580268632 4.738901915863987 -5.3677372944273065 C 4.752164037183555 -5.282110119820529 4.763263856114063 -5.200807549991872 4.749713427809287 -5.115468682370302 C 4.734433157593263 -5.020183223759056 4.688736500437794 -4.947097403008827 4.61406499126892 -4.904572122690646 C 4.5393934821000474 -4.8621909958650695 4.412970869086337 -4.89246322931191 4.3437771926364155 -4.944070179664143" fill="#bf1b2c" transform="matrix(1,0,0,1,0,0)" fill-rule="nonzero"></path></g><g clip-path="url(#a529e5822-fb5d-4c2c-8270-5fd138ba75be9f14179c-0bc7-41c4-bdcc-5111da26c844)"><path d=" M 2.860005293263415 -5.713705676676913 C 2.9375598722843685 -5.7245171886222135 3.098002709552624 -5.556722523231154 3.1658990045691087 -5.503529884460277 C 3.224569476058938 -5.457689073812204 3.2725725890960713 -5.391378467214363 3.288285319789907 -5.320454948853193 C 3.316971864818104 -5.192302493928235 3.256571551417027 -5.104945477410209 3.2016490707349012 -5.0505996106985 C 3.1755572885735774 -5.02465198202978 3.1504745808604806 -5.006344488469072 3.1370683060483087 -4.994668055568147 C 3.070036931987447 -4.936574198048734 3.00747431619731 -4.900535824897734 2.918964071738452 -4.9174017835324015 C 2.867933735356635 -4.927060067536869 2.8192098548564823 -4.944790947127162 2.7742339651640333 -4.969297040869843 C 2.741430606581868 -4.987240059501043 2.710646011223247 -5.0086491266028785 2.682408190375283 -5.033157038093416 C 2.6271974027079508 -5.0810159976379445 2.5832305874637296 -5.165778251289098 2.586978578271434 -5.237134230128079 C 2.593897945916426 -5.363124382663978 2.753620015721661 -5.698857866938701 2.860005293263415 -5.713705676676913" fill="#bf1b2c" transform="matrix(1,0,0,1,0,0)" fill-rule="nonzero"></path></g><g clip-path="url(#a529e5822-fb5d-4c2c-8270-5fd138ba75be9f14179c-0bc7-41c4-bdcc-5111da26c844)"><path d=" M 3.733287151458464 -4.943637719186331 C 3.6606337911860467 -4.949115551905283 3.4423854033835863 -4.962377673224851 3.287564552326887 -4.965981510539951 C 3.2493638767868265 -4.995532976523771 3.116166049620728 -5.217961815611748 3.277473807844607 -5.469365506713128 C 3.286411324386055 -5.483204242003113 3.3358559723492283 -5.547064239226686 3.3527219309838965 -5.565083425802186 C 3.3682905081851287 -5.581949384436855 3.4462775476838945 -5.67146870334394 3.4552150642253423 -5.682424368781845 C 3.5050921726663273 -5.74311298916813 3.528877498945988 -5.775691678496634 3.5670781744860487 -5.794719939520363 C 3.597062100947681 -5.809711902751179 3.6436236790587744 -5.794287479042551 3.6958072433814233 -5.682424368781845 C 3.7025824575338113 -5.667720712536236 3.7266560907986794 -5.616978683139627 3.732133923517632 -5.605878864209119 C 3.74467527737418 -5.580075389033002 3.7856148692737173 -5.50107927508601 3.794552385815165 -5.485078237406965 C 3.800895139489741 -5.473401804506041 3.8230947773507578 -5.419200091286935 3.827419382128878 -5.40492889551914 C 3.8648992902059187 -5.280812738387093 3.8892612304559946 -5.065735727421921 3.733287151458464 -4.943637719186331" fill="#bf1b2c" transform="matrix(1,0,0,1,0,0)" fill-rule="nonzero"></path></g><g clip-path="url(#a529e5822-fb5d-4c2c-8270-5fd138ba75be9f14179c-0bc7-41c4-bdcc-5111da26c844)"><path d=" M 3.8402490429706337 -5.487096386303421 C 3.978203935392664 -5.606599631672139 4.110536841603139 -5.75248296618739 4.354732858074319 -5.423668849557659 C 4.488507299210834 -5.24362113729526 4.537807793681403 -5.074240783485557 4.28236780478711 -4.936141737570923 C 4.19435229459084 -4.890516735941788 4.096189443655524 -4.867997314858092 3.9970880429237883 -4.870696051928705 C 3.9202542313658553 -4.873002507810369 3.85019563396031 -4.891886615341493 3.803489902356613 -4.928213295477702 L 3.7954173067707884 -4.934556049152278 C 3.6766348288650903 -5.032724577615603 3.5714027792641683 -5.254288495747956 3.8402490429706337 -5.487096386303421" fill="#bf1b2c" transform="matrix(1,0,0,1,0,0)" fill-rule="nonzero"></path></g><g clip-path="url(#a529e5822-fb5d-4c2c-8270-5fd138ba75be9f14179c-0bc7-41c4-bdcc-5111da26c844)"><path d=" M 2.8398238042988546 -5.092980737524076 C 2.857978446358014 -5.071597927729404 2.866546900830049 -5.043693431661296 2.8635210867837224 -5.015806875180289 C 2.8604952727373965 -4.987920318699282 2.8461411690903655 -4.96250302101946 2.82382276661981 -4.945511714590182 C 2.7767263024443185 -4.909058456308806 2.709338509442875 -4.915835236244102 2.670443450489151 -4.96093613829881 C 2.652288808429992 -4.982318948093482 2.643720353957957 -5.010223444161591 2.646746168004283 -5.038110000642597 C 2.6497719820506096 -5.065996557123604 2.66412608569764 -5.0914138548034265 2.6864444881681955 -5.108405161232705 C 2.733540952343687 -5.1448584195140805 2.800928745345131 -5.138081639578784 2.8398238042988546 -5.092980737524076" fill="#2350a9" transform="matrix(1,0,0,1,0,0)" fill-rule="nonzero"></path></g><g clip-path="url(#a529e5822-fb5d-4c2c-8270-5fd138ba75be9f14179c-0bc7-41c4-bdcc-5111da26c844)"><path d=" M 3.476405627638131 -4.9641075151360985 C 3.476405627638131 -4.906157811109289 3.4275375936453742 -4.859307926012988 3.367425587229505 -4.859307926012988 C 3.3071694273210315 -4.859307926012988 3.2583013933282747 -4.906157811109289 3.2583013933282747 -4.9641075151360985 C 3.2583013933282747 -5.022057219162908 3.3071694273210315 -5.068907104259209 3.367425587229505 -5.068907104259209 C 3.4275375936453742 -5.068907104259209 3.476405627638131 -5.022057219162908 3.476405627638131 -4.9641075151360985" fill="#2350a9" transform="matrix(1,0,0,1,0,0)" fill-rule="nonzero"></path></g><g clip-path="url(#a529e5822-fb5d-4c2c-8270-5fd138ba75be9f14179c-0bc7-41c4-bdcc-5111da26c844)"><path d=" M 4.2933234702250145 -4.978955324874311 C 4.2933234702250145 -4.906157811109289 4.230184240464461 -4.8471990326342524 4.1523413544583 -4.8471990326342524 C 4.074498468452139 -4.8471990326342524 4.011359238691585 -4.906157811109289 4.011359238691585 -4.978955324874311 C 4.011359238691585 -5.051752838639333 4.074498468452139 -5.11071161711437 4.1523413544583 -5.11071161711437 C 4.230184240464461 -5.11071161711437 4.2933234702250145 -5.051752838639333 4.2933234702250145 -4.978955324874311" fill="#2350a9" transform="matrix(1,0,0,1,0,0)" fill-rule="nonzero"></path></g><g clip-path="url(#a529e5822-fb5d-4c2c-8270-5fd138ba75be9f14179c-0bc7-41c4-bdcc-5111da26c844)"><path d=" M 4.449874163192961 -4.94003388187123 C 4.449874163192961 -4.888715238504205 4.405474887470929 -4.8471990326342524 4.350552406788803 -4.8471990326342524 C 4.2957740795992825 -4.8471990326342524 4.251230650384645 -4.888715238504205 4.251230650384645 -4.94003388187123 C 4.251230650384645 -4.991352525238256 4.2957740795992825 -5.032868731108207 4.350552406788803 -5.032868731108207 C 4.405474887470929 -5.032868731108207 4.449874163192961 -4.991352525238256 4.449874163192961 -4.94003388187123" fill="#2350a9" transform="matrix(1,0,0,1,0,0)" fill-rule="nonzero"></path></g><g clip-path="url(#a529e5822-fb5d-4c2c-8270-5fd138ba75be9f14179c-0bc7-41c4-bdcc-5111da26c844)"><path d=" M 2.1072357548853127 -4.989766836819612 C 2.1072357548853127 -4.931817132792803 2.0583677208925555 -4.884967247696502 1.9982557144766864 -4.884967247696502 C 1.9379995545682132 -4.884967247696502 1.8891315205754564 -4.931817132792803 1.8891315205754564 -4.989766836819612 C 1.8891315205754564 -5.047716540846421 1.9379995545682132 -5.0945664259427215 1.9982557144766864 -5.0945664259427215 C 2.0583677208925555 -5.0945664259427215 2.1072357548853127 -5.047716540846421 2.1072357548853127 -4.989766836819612" fill="#2350a9" transform="matrix(1,0,0,1,0,0)" fill-rule="nonzero"></path></g><g clip-path="url(#a529e5822-fb5d-4c2c-8270-5fd138ba75be9f14179c-0bc7-41c4-bdcc-5111da26c844)"><path d=" M 2.0520249672179793 -5.425975305439323 C 2.1468779653514134 -5.528324285188165 2.2856977787290678 -5.535099499340554 2.408372400935074 -5.465185055427612 C 2.4661779514692794 -5.432173905621296 2.540561153652945 -5.35490763358555 2.600384853083606 -5.230503169468296 C 2.6290713981118023 -5.170679470037634 2.768323671967269 -5.057807285328701 2.6818315764048672 -4.959927063850582 C 2.6462256637316792 -4.919564085921461 2.5879876527196615 -4.907166885557517 2.5329210185449327 -4.90399550872023 C 2.4255266665549504 -4.897508601553049 2.3233218402987124 -4.893183996774929 2.2190988651460186 -4.91913162544365 C 2.102766996614588 -4.94796232396445 2.0171398220078105 -5.011245707217608 1.9728846997783818 -5.105522091380625 C 1.928629577548953 -5.199942629036247 1.98038068139379 -5.348709033403578 2.0520249672179793 -5.425975305439323" fill="#bf1b2c" transform="matrix(1,0,0,1,0,0)" fill-rule="nonzero"></path></g><g clip-path="url(#a529e5822-fb5d-4c2c-8270-5fd138ba75be9f14179c-0bc7-41c4-bdcc-5111da26c844)"><path d=" M 3.905550575120247 -4.950412933338718 C 3.905550575120247 -4.89174246184889 3.850051480467706 -4.844027655796965 3.7817227249734087 -4.844027655796965 C 3.713393969479111 -4.844027655796965 3.65789487482657 -4.89174246184889 3.65789487482657 -4.950412933338718 C 3.65789487482657 -5.009083404828548 3.713393969479111 -5.056798210880473 3.7817227249734087 -5.056798210880473 C 3.850051480467706 -5.056798210880473 3.905550575120247 -5.009083404828548 3.905550575120247 -4.950412933338718" fill="#2350a9" transform="matrix(1,0,0,1,0,0)" fill-rule="nonzero"></path></g><g clip-path="url(#a529e5822-fb5d-4c2c-8270-5fd138ba75be9f14179c-0bc7-41c4-bdcc-5111da26c844)"><path d=" M 2.387902604985306 -4.9481064774570545 C 2.387902604985306 -4.890156773430245 2.339034570992549 -4.843306888333944 2.2789225645766797 -4.843306888333944 C 2.2186664046682067 -4.843306888333944 2.16979837067545 -4.890156773430245 2.16979837067545 -4.9481064774570545 C 2.16979837067545 -5.0060561814838636 2.2186664046682067 -5.052906066580165 2.2789225645766797 -5.052906066580165 C 2.339034570992549 -5.052906066580165 2.387902604985306 -5.0060561814838636 2.387902604985306 -4.9481064774570545" fill="#2350a9" transform="matrix(1,0,0,1,0,0)" fill-rule="nonzero"></path></g><g clip-path="url(#a529e5822-fb5d-4c2c-8270-5fd138ba75be9f14179c-0bc7-41c4-bdcc-5111da26c844)"><path d=" M 5.1224943596832375 -0.4493642802713369 L 1.5352346962326286 -0.4493642802713369 C 1.3900721291803981 -0.4493642802713369 1.1647602202403415 -0.5341265339224908 1.1458761127092174 -0.5939502333531506 C 1.1099818930508207 -0.7085522599733336 1.1999336724357181 -0.879950762679492 1.3501416117290892 -0.9067633123038368 C 1.5789132044916419 -0.9478470576959781 1.7618439866061213 -0.9167099032935138 2.367000348557725 -1.1118937322793334 C 2.9721567105093283 -1.3072217147577572 3.3932290624056205 -1.6998958286110604 4.456361070360141 -1.6451175014215398 C 5.519493078314661 -1.5904833277246224 5.5321785856638135 -0.7241208371745653 5.5321785856638135 -0.7241208371745653 C 5.5321785856638135 -0.6830370917824258 5.523241069122365 -0.6442598022719475 5.5076724919211335 -0.6105278850026119 C 5.474517188622213 -0.5387394456858177 5.296199318271062 -0.4493642802713369 5.1224943596832375 -0.4493642802713369" fill="#f25937" transform="matrix(1,0,0,1,0,0)" fill-rule="nonzero"></path></g><g clip-path="url(#a529e5822-fb5d-4c2c-8270-5fd138ba75be9f14179c-0bc7-41c4-bdcc-5111da26c844)"><path d=" M 2.3964076610489418 -0.4897272582004568 L 2.3161141656685125 -0.4897272582004568 C 2.3091947980235203 -0.6970199805650132 2.2760394947245994 -0.8926362700286443 2.2209728605498706 -1.066773689094279 C 2.244902340322135 -1.0738372102318756 2.2696967410500233 -1.0814773453398878 2.295356062733536 -1.0894057874331073 C 2.353882380730761 -0.9079165402446687 2.389199986418742 -0.7049484226582328 2.3964076610489418 -0.4897272582004568 M 2.6616500874403073 -1.2247659169882663 C 2.6381530681458547 -1.2146751725059861 2.6148002023440062 -1.2045844280237068 2.5910148760643454 -1.1947819905266348 C 2.673038213356023 -0.9909489519845742 2.7230594752896122 -0.7494918518728699 2.7317086848458523 -0.4897272582004568 L 2.8120021802262816 -0.4897272582004568 C 2.8030646636848338 -0.7601592103255657 2.7494395644361447 -1.011562901426947 2.6616500874403073 -1.2247659169882663 M 3.0188624421130257 -1.3829022983748578 C 2.9949329623407612 -1.3726674003999735 2.971435943046309 -1.362144195439881 2.9479389237518565 -1.3517651439723926 C 3.0636941783128706 -1.1165066440426603 3.136491692077892 -0.8173881468893551 3.1467265900527766 -0.4897272582004568 L 3.228317466866642 -0.4897272582004568 C 3.2176501084139457 -0.8277671983568426 3.141537064319032 -1.1375530539628445 3.0188624421130257 -1.3829022983748578 M 1.9106103909734524 -0.9863360402212455 C 1.8833653808712958 -0.9805699005170858 1.8577060591877834 -0.9753803747833425 1.833055811952499 -0.9707674630200138 C 1.8718331014629759 -0.8220010586526829 1.8948976602796164 -0.6596842259805751 1.9005196464911724 -0.4897272582004568 L 1.9808131418716017 -0.4897272582004568 C 1.9759944469280495 -0.6573626538759942 1.9524472494918055 -0.8239336911816668 1.9106103909734544 -0.9863360402212402 M 1.5085663001008889 -0.9273772617462086 C 1.482252743957287 -0.9247704596296673 1.4559673060675247 -0.9218872306106807 1.4297143396465015 -0.9187280521899686 C 1.4608514940489639 -0.7842328435904333 1.479879755072692 -0.6402235044790352 1.4849251273138322 -0.4897272582004568 L 1.565218622694262 -0.4897272582004568 C 1.5605705962821759 -0.6371024904999052 1.5415971364190524 -0.7836760888318235 1.5085663001008898 -0.9273772617462033 M 4.15882826162548 -1.647712264288411 C 4.125672958326559 -1.6467031898401823 4.092517655027638 -1.6458382688845585 4.060803886654758 -1.6438201199881028 C 4.252383878325478 -1.3751180097742415 4.379383105309605 -0.9601001045673181 4.392501073136569 -0.4897272582004568 L 4.476542559324702 -0.4897272582004568 C 4.464289512453362 -0.9573611882078419 4.3450745740698515 -1.367189567681021 4.15882826162548 -1.647712264288411 M 5.025767366145953 -1.5018289297731604 C 4.982955674046686 -1.5240899225766373 4.938697032098908 -1.5434500684558614 4.893290306442876 -1.5597786337999686 C 5.084149530650574 -1.310393091595044 5.211004604142096 -0.9259357268201684 5.224987492924685 -0.4897272582004568 L 5.306145909260738 -0.4897272582004568 C 5.2936045554041895 -0.88600520936886 5.1889491197736834 -1.2424967965785587 5.025767366145953 -1.5018289297731604 M 3.3600737591067005 -1.5137936696592922 C 3.3348468979009995 -1.5055769205808636 3.3106291111435273 -1.4967835575320194 3.286123017400847 -1.4881343479757794 C 3.44613339419129 -1.2381721918004391 3.549923908866172 -0.8849961349206321 3.562321109230116 -0.4897272582004568 L 3.6439119860439817 -0.4897272582004568 C 3.631370632187434 -0.8913388885952083 3.5251295081382836 -1.2522992340756316 3.3600737591067005 -1.5137936696592922 M 4.58307199035906 -1.6319995335945743 C 4.548619305626703 -1.6363241383726947 4.514166620894347 -1.6406487431508143 4.477119173295118 -1.642955199032479 C 4.66841085798063 -1.3742530888186177 4.794977624486944 -0.9596676440895058 4.808095592313908 -0.4897272582004568 L 4.891272157546418 -0.4897272582004568 C 4.879163264167682 -0.9492885926220174 4.763984623577084 -1.352341757942809 4.583071990359061 -1.6319995335945743 M 3.7148355044051513 -1.6024480676107542 C 3.6868697268399755 -1.597402695369614 3.65861564228959 -1.592501476621078 3.6318030926652463 -1.5867353369169175 C 3.830879065951374 -1.3360524132785567 3.9637885861322637 -0.940206922587965 3.977915628407456 -0.4897272582004568 L 4.059506505221322 -0.4897272582004568 C 4.045379462946129 -0.938909541154529 3.9144880916616955 -1.3373497947119928 3.7148355044051513 -1.6024480676107542" fill="#f6862d" transform="matrix(1,0,0,1,0,0)" fill-rule="nonzero"></path></g></g></g><defs><clipPath id="SvgjsClipPath1002"><path d=" M 0 -6.558589296828973 h 6.5963196680665614 v 6.308589296828973 h -6.5963196680665614 Z"></path></clipPath><clipPath id="a529e5822-fb5d-4c2c-8270-5fd138ba75be9f14179c-0bc7-41c4-bdcc-5111da26c844"><path d=" M 0 -0.25 L 6.596319668066562 -0.25 L 6.596319668066562 -6.5587334503215775 L 0 -6.5587334503215775 Z"></path></clipPath></defs></svg>